<svg xmlns="http://www.w3.org/2000/svg" version="1.1" xmlns:xlink="http://www.w3.org/1999/xlink" width="2000" height="1500" viewBox="0 0 2000 1500"><rect width="2000" height="1500" x="0" y="0" id="background" stroke="transparent" fill="#00023b"></rect><svg xml:space="preserve" width="1500" height="1125" data-version="2" data-id="lg_7ovua9jO8s3OqSN7i1" viewBox="0 0 457 561" x="250" y="187.5"><rect width="100%" height="100%" fill="transparent"></rect><path fill="#f9f7d0" d="M16.97 419.05H4.55v-10.8h36.72v10.8H28.85v64.8H16.97Z"></path><rect width="36.72" height="75.6" x="-18.36" y="-37.8" fill="none" rx="0" ry="0" transform="translate(23.41 446.55)"></rect><path fill="#f9f7d0" d="M46.99 408.25h11.88v30.78h12.74v-30.78h11.88v75.6H71.61v-34.02H58.87v34.02H46.99Z"></path><rect width="36.5" height="75.6" x="-18.25" y="-37.8" fill="none" rx="0" ry="0" transform="translate(65.74 446.55)"></rect><path fill="#f9f7d0" d="M92.35 408.25h32.4v10.8h-20.52v19.98h16.31v10.8h-16.31v23.22h20.52v10.8h-32.4Z"></path><rect width="32.4" height="75.6" x="-16.2" y="-37.8" fill="none" rx="0" ry="0" transform="translate(109.05 446.55)"></rect><path fill="#f9f7d0" d="M158.12 419.05H145.7v-10.8h36.72v10.8H170v64.8h-11.88Z"></path><rect width="36.72" height="75.6" x="-18.36" y="-37.8" fill="none" rx="0" ry="0" transform="translate(164.56 446.55)"></rect><path fill="#f9f7d0" d="M204.89 484.93q-8.75 0-13.4-4.97-4.64-4.97-4.64-14.04v-39.75q0-9.07 4.64-14.04 4.65-4.96 13.4-4.96 8.74 0 13.39 4.96 4.64 4.97 4.64 14.04v39.75q0 9.07-4.64 14.04-4.65 4.97-13.39 4.97m0-10.8q6.15 0 6.15-7.46v-41.25q0-7.45-6.15-7.45-6.16 0-6.16 7.45v41.25q0 7.46 6.16 7.46"></path><rect width="36.07" height="77.76" x="-18.04" y="-38.88" fill="none" rx="0" ry="0" transform="translate(205.38 446.55)"></rect><path fill="#f9f7d0" d="M248.19 484.93q-8.64 0-13.17-4.92-4.54-4.91-4.54-14.09v-57.67h11.88v58.53q0 3.89 1.57 5.62 1.56 1.73 4.48 1.73 2.92 0 4.48-1.73 1.57-1.73 1.57-5.62v-58.53h11.45v57.67q0 9.18-4.54 14.09-4.54 4.92-13.18 4.92"></path><rect width="35.43" height="76.68" x="-17.71" y="-38.34" fill="none" rx="0" ry="0" transform="translate(248.7 447.09)"></rect><path fill="#f9f7d0" d="M274.33 408.25h17.6q9.18 0 13.4 4.26 4.21 4.27 4.21 13.12v4.65q0 11.77-7.78 14.9v.22q4.32 1.29 6.1 5.29 1.79 4 1.79 10.69v13.29q0 3.24.21 5.23.22 2 1.08 3.95h-12.09q-.65-1.84-.87-3.46-.21-1.62-.21-5.83v-13.83q0-5.18-1.68-7.23-1.67-2.05-5.78-2.05h-4.1v32.4h-11.88Zm16.2 32.4q3.56 0 5.35-1.84 1.78-1.84 1.78-6.16v-5.83q0-4.1-1.46-5.94-1.46-1.83-4.59-1.83h-5.4v21.6Z"></path><rect width="36.61" height="75.6" x="-18.3" y="-37.8" fill="none" rx="0" ry="0" transform="translate(293.13 446.55)"></rect><path fill="#f9f7d0" d="M317.85 408.25h11.88v75.6h-11.88Z"></path><rect width="11.88" height="75.6" x="-5.94" y="-37.8" fill="none" rx="0" ry="0" transform="translate(324.29 446.55)"></rect><path fill="#f9f7d0" d="M354.03 484.93q-8.64 0-13.06-4.92-4.43-4.91-4.43-14.09v-4.32h11.23v5.18q0 7.35 6.16 7.35 3.02 0 4.59-1.79 1.56-1.78 1.56-5.77 0-4.76-2.16-8.37-2.16-3.62-7.99-8.7-7.34-6.48-10.26-11.72-2.92-5.23-2.92-11.82 0-8.97 4.54-13.88t13.18-4.91q8.53 0 12.9 4.91 4.38 4.91 4.38 14.09v3.14h-11.24v-3.89q0-3.89-1.51-5.67-1.51-1.78-4.43-1.78-5.94 0-5.94 7.23 0 4.11 2.22 7.67 2.21 3.56 8.04 8.64 7.46 6.48 10.26 11.77 2.81 5.29 2.81 12.42 0 9.29-4.59 14.26-4.59 4.97-13.34 4.97"></path><rect width="35.42" height="77.76" x="-17.71" y="-38.88" fill="none" rx="0" ry="0" transform="translate(354.75 446.55)"></rect><path fill="#f9f7d0" d="M388.05 419.05h-12.42v-10.8h36.72v10.8h-12.42v64.8h-11.88Z"></path><rect width="36.72" height="75.6" x="-18.36" y="-37.8" fill="none" rx="0" ry="0" transform="translate(394.49 446.55)"></rect><path fill="#f9f7d0" d="M433.52 484.93q-8.64 0-13.07-4.92-4.42-4.91-4.42-14.09v-4.32h11.23v5.18q0 7.35 6.15 7.35 3.03 0 4.59-1.79 1.57-1.78 1.57-5.77 0-4.76-2.16-8.37-2.16-3.62-7.99-8.7-7.35-6.48-10.26-11.72-2.92-5.23-2.92-11.82 0-8.97 4.54-13.88 4.53-4.91 13.17-4.91 8.54 0 12.91 4.91 4.37 4.91 4.37 14.09v3.14H440v-3.89q0-3.89-1.51-5.67-1.51-1.78-4.43-1.78-5.94 0-5.94 7.23 0 4.11 2.22 7.67 2.21 3.56 8.04 8.64 7.45 6.48 10.26 11.77 2.81 5.29 2.81 12.42 0 9.29-4.59 14.26-4.59 4.97-13.34 4.97"></path><rect width="35.42" height="77.76" x="-17.71" y="-38.88" fill="none" rx="0" ry="0" transform="translate(434.24 446.55)"></rect><path fill="#f9f7d0" d="M83.52 522.47h4.77l2.2 24.21h.09l2.34-24.21h5.4l2.34 24.21h.09l2.21-24.21h4.27l-3.19 31.5h-6.17l-2.25-21.24h-.09l-2.25 21.24h-6.57Z"></path><rect width="23.71" height="31.5" x="-11.86" y="-15.75" fill="none" rx="0" ry="0" transform="translate(95.88 538.72)"></rect><path fill="#f9f7d0" d="M115.15 522.47h13.5v4.5h-8.55v8.33h6.8v4.5h-6.8v9.67h8.55v4.5h-13.5Z"></path><rect width="13.5" height="31.5" x="-6.75" y="-15.75" fill="none" rx="0" ry="0" transform="translate(122.4 538.72)"></rect><path fill="#f9f7d0" d="M149.49 522.47h4.95v27h8.14v4.5h-13.09Z"></path><rect width="13.09" height="31.5" x="-6.54" y="-15.75" fill="none" rx="0" ry="0" transform="translate(156.53 538.72)"></rect><path fill="#f9f7d0" d="M177.34 554.42q-3.64 0-5.58-2.07-1.93-2.07-1.93-5.85v-16.56q0-3.78 1.93-5.85 1.94-2.07 5.58-2.07 3.65 0 5.58 2.07 1.94 2.07 1.94 5.85v16.56q0 3.78-1.94 5.85-1.93 2.07-5.58 2.07m0-4.5q2.57 0 2.57-3.1v-17.19q0-3.11-2.57-3.11-2.56 0-2.56 3.11v17.19q0 3.1 2.56 3.1"></path><rect width="15.03" height="32.4" x="-7.51" y="-16.2" fill="none" rx="0" ry="0" transform="translate(177.84 538.72)"></rect><path fill="#f9f7d0" d="M192.19 522.47h5l3.24 24.44h.09l3.24-24.44h4.54l-4.77 31.5h-6.57Z"></path><rect width="16.11" height="31.5" x="-8.05" y="-15.75" fill="none" rx="0" ry="0" transform="translate(200.75 538.72)"></rect><path fill="#f9f7d0" d="M216.09 522.47h13.5v4.5h-8.55v8.33h6.79v4.5h-6.79v9.67h8.55v4.5h-13.5Z"></path><rect width="13.5" height="31.5" x="-6.75" y="-15.75" fill="none" rx="0" ry="0" transform="translate(223.34 538.72)"></rect><path fill="#f9f7d0" d="M257.4 554.42q-3.56 0-5.42-2.02-1.87-2.03-1.87-5.72v-16.92q0-3.69 1.87-5.71 1.86-2.03 5.42-2.03 3.55 0 5.42 2.03 1.87 2.02 1.87 5.71v3.33h-4.68v-3.64q0-2.93-2.48-2.93-2.47 0-2.47 2.93v17.59q0 2.88 2.47 2.88 2.48 0 2.48-2.88v-4.81h4.68v4.45q0 3.69-1.87 5.72-1.87 2.02-5.42 2.02"></path><rect width="14.58" height="32.4" x="-7.29" y="-16.2" fill="none" rx="0" ry="0" transform="translate(257.9 538.72)"></rect><path fill="#f9f7d0" d="M280.3 554.42q-3.64 0-5.58-2.07-1.93-2.07-1.93-5.85v-16.56q0-3.78 1.93-5.85 1.94-2.07 5.58-2.07 3.65 0 5.58 2.07 1.94 2.07 1.94 5.85v16.56q0 3.78-1.94 5.85-1.93 2.07-5.58 2.07m0-4.5q2.57 0 2.57-3.1v-17.19q0-3.11-2.57-3.11-2.56 0-2.56 3.11v17.19q0 3.1 2.56 3.1"></path><rect width="15.03" height="32.4" x="-7.51" y="-16.2" fill="none" rx="0" ry="0" transform="translate(280.8 538.72)"></rect><path fill="#f9f7d0" d="M296.55 522.47h7.56q3.69 0 5.53 1.98 1.85 1.98 1.85 5.81v15.93q0 3.82-1.85 5.8-1.84 1.98-5.53 1.98h-7.56Zm7.47 27q1.21 0 1.87-.72.65-.72.65-2.34v-16.38q0-1.62-.65-2.34-.66-.72-1.87-.72h-2.52v22.5Z"></path><rect width="14.94" height="31.5" x="-7.47" y="-15.75" fill="none" rx="0" ry="0" transform="translate(304.52 538.72)"></rect><path fill="#f9f7d0" d="M320.22 522.47h4.95v31.5h-4.95Z"></path><rect width="4.95" height="31.5" x="-2.48" y="-15.75" fill="none" rx="0" ry="0" transform="translate(323.2 538.72)"></rect><path fill="#f9f7d0" d="M334.26 522.47h6.21l4.81 18.86h.09v-18.86h4.41v31.5h-5.08l-5.94-22.99h-.09v22.99h-4.41Z"></path><rect width="15.52" height="31.5" x="-7.76" y="-15.75" fill="none" rx="0" ry="0" transform="translate(342.52 538.72)"></rect><path fill="#f9f7d0" d="M365.89 554.42q-3.6 0-5.49-2.04-1.89-2.05-1.89-5.88v-16.56q0-3.82 1.89-5.87 1.89-2.05 5.49-2.05 3.6 0 5.49 2.05 1.89 2.05 1.89 5.87v2.7h-4.68v-3.01q0-3.11-2.56-3.11-2.57 0-2.57 3.11v17.23q0 3.06 2.57 3.06 2.56 0 2.56-3.06v-6.16h-2.47v-4.5h7.15v10.3q0 3.83-1.89 5.88-1.89 2.04-5.49 2.04"></path><rect width="14.76" height="32.4" x="-7.38" y="-16.2" fill="none" rx="0" ry="0" transform="translate(366.39 538.72)"></rect><path fill="#f9f7d0" d="M388.985 97.863 229.151 5.578 69.317 97.863l159.834 92.27z"></path><path fill="#eb5f2a" fill-rule="evenodd" d="M229.154 190.117v184.57l159.834-92.285V97.847z"></path><path fill="#4caa49" fill-rule="evenodd" d="M229.153 190.117v184.57L69.32 282.402V97.847z"></path><path fill="#4caa49" fill-rule="evenodd" d="m323.085 244.355-93.927 54.234-93.942-54.234V135.888l93.942-54.233 93.927 54.233z"></path><path fill="#eb5f2a" fill-rule="evenodd" d="M229.16 192.625V84.158l-93.943 54.233v108.467z"></path><path fill="#f9f7d0" fill-rule="evenodd" d="m229.158 190.118 93.927 54.233-93.927 54.234-93.942-54.234z"></path></svg></svg>